PathFileType	4	(X/Y/Z)	F:\MotionCapture\20160217\3\Generated_files\EMG_Fprce_test03-Dynamic.trc
DataRate	CameraRate	NumFrames	NumMarkers	Units	OrigDataRate	OrigDataStartFrame	OrigNumFrames
120.00	120.00	       4	39	mm	120.00	192	       766
Frame#	Time	Top.Head			Front.Head			Rear.Head			R.Shoulder			R.Offset			R.Elbow			R.Wrist			L.Shoulder			L.Elbow			L.Wrist			R.ASIS			L.ASIS			V.Sacral			R.Thigh			R.Knee			R.Shank			R.Ankle			R.Heel			R.Toe			L.Thigh			L.Knee			L.Shank			L.Ankle			L.Heel			L.Toe			R1			R2			R3			R4			R5			R6			R7			L1			L2			L3			L4			L5			L6			L7			V_Mid_ASIS			V_Pelvis_Origin			V_R.Hip_JC			V_L.Hip_JC			V_R.Knee_JC			V_L.Knee_JC			V_R.Ankle_JC			V_L.Ankle_JC			V_Mid_Hip			V_Mid_Shoulder			V_R.Hand			V_L.Hand			V_R.Toe_Offset_Static			V_L.Toe_Offset_Static			V_R.Toe_Offset			V_L.Toe_Offset			
		X1	Y1	Z1	X2	Y2	Z2	X3	Y3	Z3	X4	Y4	Z4	X5	Y5	Z5	X6	Y6	Z6	X7	Y7	Z7	X8	Y8	Z8	X9	Y9	Z9	X10	Y10	Z10	X11	Y11	Z11	X12	Y12	Z12	X13	Y13	Z13	X14	Y14	Z14	X15	Y15	Z15	X16	Y16	Z16	X17	Y17	Z17	X18	Y18	Z18	X19	Y19	Z19	X20	Y20	Z20	X21	Y21	Z21	X22	Y22	Z22	X23	Y23	Z23	X24	Y24	Z24	X25	Y25	Z25	X26	Y26	Z26	X27	Y27	Z27	X28	Y28	Z28	X29	Y29	Z29	X30	Y30	Z30	X31	Y31	Z31	X32	Y32	Z32	X33	Y33	Z33	X34	Y34	Z34	X35	Y35	Z35	X36	Y36	Z36	X37	Y37	Z37	X38	Y38	Z38	X39	Y39	Z39	

192	1.592	1343.78979	118.35808	1699.16663	1227.61206	119.67689	1622.13953	1447.33020	107.69724	1624.03394	1384.32800	305.18427	1389.17322	1516.15710	40.84280	1247.68555	1396.93896	420.77853	1068.64233	1178.00806	388.71582	928.73236	1370.08313	-103.12608	1395.23376	1488.66992	-216.84544	1109.58899	1500.12927	-269.63510	856.20258	1341.38318	256.23419	907.34308	1292.20435	-26.73380	923.14508	1536.11768	66.86256	919.78766	1383.91724	239.38820	522.69220	1503.12451	267.71527	441.53220	1651.18469	187.16170	256.65289	1815.92834	233.60614	175.70438	1865.18530	164.97061	211.43513	1754.65247	206.99670	46.21891	1171.24207	25.97575	650.71094	1191.54663	-26.28467	470.41888	1169.00977	56.37214	334.34103	1195.66370	-8.33134	62.99173	1264.33423	44.40128	44.73307	1057.84241	11.81040	45.25512	1718.23767	188.04601	38.22213	1742.57568	169.98769	52.01018	1776.53528	147.73734	132.12901	1829.25562	140.20107	177.53163	1856.64478	208.52310	183.92674	1827.55261	238.22903	108.61736	1792.71423	243.03030	54.03971	1016.56378	41.99427	43.11512	1048.84668	50.78671	47.06342	1146.07483	87.32065	52.20638	1228.87439	80.17353	45.54764	1235.69995	6.63828	43.74726	1158.86682	-14.28140	36.34698	1095.15527	-21.42409	42.28676	
193	1.600	1332.00403	117.50574	1701.06165	1216.53687	118.47014	1624.68494	1435.82458	106.84581	1626.29590	1372.56665	303.92789	1391.48572	1504.06604	39.76791	1249.87378	1388.66016	418.81659	1070.78149	1172.25171	388.23343	925.68457	1357.91675	-103.84525	1397.91235	1473.50452	-217.28632	1110.19092	1480.24695	-268.35715	856.37976	1328.92139	253.52817	909.48895	1280.30188	-28.66799	925.44843	1524.51257	65.76563	922.16370	1363.40186	241.77965	523.86493	1481.29993	269.31555	441.01578	1634.44226	189.04713	259.87033	1801.65759	234.83469	185.36823	1848.90259	167.12274	224.81938	1749.62573	208.33566	50.26569	1161.13708	23.98058	648.29218	1185.45032	-27.43613	469.70981	1164.22412	55.82205	333.93008	1195.44043	-8.34992	62.84853	1264.25586	44.32452	44.91499	1057.59924	11.65938	44.79314	1713.92859	189.19435	37.91133	1736.44312	172.45375	56.00903	1764.42078	149.39253	139.32774	1815.02686	140.13020	188.60104	1841.49951	209.94162	196.90353	1816.53198	239.88748	120.08070	1786.67773	244.71727	60.73718	1016.16302	42.06112	41.73628	1048.03430	51.52375	47.09128	1145.78687	87.30782	51.75961	1228.81873	80.14266	45.52259	1235.59277	6.60935	43.80463	1158.94373	-14.32737	36.28030	1094.87842	-22.01441	41.72708	
194	1.608	1320.75562	116.46970	1703.36304	1205.24939	117.43751	1626.57227	1424.42468	105.87141	1628.67041	1361.39795	302.72217	1394.10046	1492.19788	38.55096	1252.25500	1380.38025	416.69806	1073.30798	1167.97754	388.29752	922.51898	1346.17529	-104.41064	1400.51660	1457.07068	-217.58775	1110.86841	1460.75305	-266.90381	856.50232	1316.49597	251.69725	911.82965	1268.99048	-30.34474	926.92743	1512.70178	64.58947	924.04333	1343.58179	243.53593	525.14838	1458.58423	270.33002	440.33453	1616.43457	190.32112	263.24399	1785.66052	235.77812	195.16374	1829.18103	167.18875	237.54099	1749.24036	210.57962	52.32338	1152.93896	23.14234	646.38989	1180.14685	-28.51942	469.10403	1160.88354	55.21970	333.55798	1195.35229	-8.30328	62.54473	1264.36707	44.26093	44.96434	1057.30261	10.87168	44.34764	1708.38123	190.74339	38.00857	1729.23499	175.21150	59.15418	1751.29041	151.51146	146.42229	1798.52148	141.15956	198.68134	1824.38611	210.22589	209.20744	1803.17395	240.19316	131.15308	1778.88721	245.47382	69.53831	1016.13428	41.76743	40.36330	1047.78625	50.98684	46.50879	1145.67908	86.94852	51.31944	1228.85645	80.04565	45.46867	1235.54724	6.58832	43.71569	1158.83301	-14.50847	36.07597	1095.14160	-22.82893	41.57755																																																	1754.76904	122.91521	89.11790	1363.98645	-39.81406	-89.93052	
195	1.617	1309.44702	115.84615	1705.96680	1194.08911	116.79771	1629.22998	1413.25232	105.12252	1630.87268	1350.69299	301.75397	1396.47473	1480.52478	37.38530	1254.33496	1372.73389	414.70013	1075.76428	1162.91736	388.26859	919.28680	1334.26648	-105.53866	1403.28137	1440.79895	-217.92563	1111.04712	1440.02087	-265.28857	856.49066	1304.43835	250.09105	914.37622	1257.68628	-32.07545	928.85156	1501.03589	63.39616	925.87402	1323.68054	244.29974	527.58130	1435.44934	271.66846	439.14325	1596.48413	191.52321	266.19409	1767.96057	236.16400	204.07158	1807.80908	165.91272	249.16423	1737.63892	212.01428	59.39616	1145.66943	22.21420	646.58606	1175.57678	-29.45178	469.35181	1157.86743	54.82830	333.20377	1195.44727	-8.42248	62.58721	1264.49854	44.13726	45.00711	1057.28149	10.61232	44.17977	1702.70337	193.27370	36.07279	1720.61780	177.02832	62.97375	1736.36743	152.89383	152.89011	1779.71753	140.98790	208.44034	1806.54407	210.36218	221.19911	1790.82678	241.13792	143.10565	1769.89429	247.28711	79.31224	1015.94989	41.70485	39.83377	1047.71130	50.76115	46.25522	1145.77771	86.89378	51.21752	1228.93823	79.97978	45.48354	1235.61670	6.53222	43.68662	1158.90686	-14.63620	36.04214	1095.28955	-23.04597	41.50269	
